# This file uses centimeters as units for non-parametric coordinates.

mtllib book_shelf.mtl
g default
v -3.533947 3.026368 0.824982
v 3.513521 3.026368 0.824982
v -3.533947 3.210355 0.824982
v 3.513521 3.210355 0.824982
v -3.533947 3.210355 -1.157199
v 3.513521 3.210355 -1.157199
v -3.533947 3.026368 -1.157199
v 3.513521 3.026368 -1.157199
v -3.533947 10.241755 0.824982
v 3.513521 10.241755 0.824982
v -3.533947 10.425741 0.824982
v 3.513521 10.425741 0.824982
v -3.533947 10.425741 -1.157199
v 3.513521 10.425741 -1.157199
v -3.533947 10.241755 -1.157199
v 3.513521 10.241755 -1.157199
v -3.533947 6.073860 0.824982
v 3.513521 6.073860 0.824982
v -3.533947 6.257848 0.824982
v 3.513521 6.257848 0.824982
v -3.533947 6.257848 -1.157199
v 3.513521 6.257848 -1.157199
v -3.533947 6.073860 -1.157199
v 3.513521 6.073860 -1.157199
v 2.612880 -0.876049 1.306250
v 2.612880 -0.450171 1.306250
v 2.612880 -0.450171 -1.306250
v 2.612880 -0.876049 -1.306250
v 2.612880 -0.876049 0.000000
v 2.531294 -0.332491 1.306250
v 2.531294 -0.332491 -1.306250
v 2.365921 -0.269733 1.306250
v 2.365921 -0.269733 -1.306250
v 0.054219 -0.269733 1.306250
v 0.054219 -0.269733 -1.306250
v -2.257483 -0.269733 1.306250
v -2.257483 -0.269733 -1.306250
v -2.422857 -0.332491 1.306250
v -2.422857 -0.332491 -1.306250
v -2.504442 -0.450171 1.306250
v -2.504442 -0.450171 -1.306250
v -2.504442 -0.876049 0.000000
v -2.504442 -0.876049 -1.306250
v -2.504442 -0.876049 1.306250
v 3.022789 -0.876049 0.000000
v 3.022789 -0.876049 1.306250
v 3.022789 -0.876049 -1.306250
v 2.985981 0.473951 1.279534
v 3.022789 0.447235 1.306250
v 3.993727 0.473951 1.293298
v 4.017445 0.447235 1.306250
v -2.985981 0.473951 1.279534
v -3.993727 0.473951 1.293298
v -3.022789 0.447235 1.306250
v -4.017445 0.447235 1.306250
v 4.017445 0.447235 0.000000
v 3.990729 0.473951 0.000000
v 4.017445 0.447235 -1.306250
v 3.993727 0.473951 -1.293298
v 2.985981 0.473951 -1.279534
v 3.022789 0.447235 -1.306250
v -4.017445 0.447235 0.000000
v -3.990729 0.473951 0.000000
v -2.985981 0.473951 -1.279534
v -3.022789 0.447235 -1.306250
v -3.993727 0.473951 -1.293298
v -4.017445 0.447235 -1.306250
v -2.859180 13.024802 -0.949298
v -2.859180 13.024802 0.824323
v -3.490679 13.024802 0.824323
v -3.490679 13.024802 -0.949298
v -2.859180 0.473951 -0.949298
v -3.490679 0.473951 -0.949298
v -2.859180 0.473951 0.824323
v -3.490679 0.473951 0.824323
v 2.859180 0.473951 -0.949298
v 2.859180 0.473951 0.824323
v 3.490680 0.473951 0.824323
v 3.490680 0.473951 -0.949298
v 2.859180 13.024802 -0.949298
v 3.490680 13.024802 -0.949298
v 2.859180 13.024802 0.824323
v 3.490680 13.024802 0.824323
v 2.859180 0.473951 1.187500
v 2.859180 13.024802 1.187500
v -2.859180 0.473951 1.187500
v -2.859180 13.024802 1.187500
v 4.017445 -0.876049 1.306250
v 4.017445 -0.876049 -0.000000
v -3.022789 -0.876049 1.306250
v -4.017445 -0.876049 0.000000
v -4.017445 -0.876049 1.306250
v 4.017445 -0.876049 -1.306250
v -3.022789 -0.876049 -1.306250
v -4.017445 -0.876049 -1.306250
v 3.800000 0.473951 1.187500
v 3.800000 0.473951 0.000000
v -3.800000 0.473951 1.187500
v -3.800000 0.473951 0.000000
v 3.800000 0.473951 -1.187500
v 2.859180 0.473951 -1.187500
v -2.859180 0.473951 -1.187500
v -3.800000 0.473951 -1.187500
v 3.800000 13.024802 1.187500
v 3.800000 13.024802 0.000000
v -3.800000 13.024802 1.187500
v -3.800000 13.024802 0.000000
v 3.800000 13.024802 -1.187500
v 2.859180 13.024802 -1.187500
v -2.859180 13.024802 -1.187500
v -3.800000 13.024802 -1.187500
v 4.000000 13.024802 1.250000
v 3.009664 13.024802 1.250000
v 4.000000 13.024802 0.000000
v -3.009663 13.024802 1.250000
v -4.000000 13.024802 1.250000
v -4.000000 13.024802 0.000000
v 4.000000 13.024802 -1.250000
v 3.009664 13.024802 -1.250000
v -3.009663 13.024802 -1.250000
v -4.000000 13.024802 -1.250000
v -4.000000 13.524802 1.250000
v -4.000000 13.524802 0.000000
v -4.000000 13.524802 -1.250000
v 4.000000 13.524802 0.000000
v 4.000000 13.524802 1.250000
v 4.000000 13.524802 -1.250000
v -3.022789 -0.876049 0.000000
v 3.009664 13.524802 -1.250000
v -3.009663 13.524802 -1.250000
v 3.009664 13.524802 0.000000
v -3.009663 13.524802 0.000000
v 3.009664 13.524802 1.250000
v -3.009663 13.524802 1.250000
vt 0.375000 0.000000
vt 0.625000 0.000000
vt 0.375000 0.250000
vt 0.625000 0.250000
vt 0.375000 0.500000
vt 0.625000 0.500000
vt 0.375000 0.750000
vt 0.625000 0.750000
vt 0.375000 1.000000
vt 0.625000 1.000000
vt 0.875000 0.000000
vt 0.875000 0.250000
vt 0.125000 0.000000
vt 0.125000 0.250000
vt 0.375000 0.000000
vt 0.625000 0.000000
vt 0.625000 0.250000
vt 0.375000 0.250000
vt 0.625000 0.500000
vt 0.375000 0.500000
vt 0.625000 0.750000
vt 0.375000 0.750000
vt 0.625000 1.000000
vt 0.375000 1.000000
vt 0.875000 0.000000
vt 0.875000 0.250000
vt 0.125000 0.000000
vt 0.125000 0.250000
vt 0.375000 0.000000
vt 0.625000 0.000000
vt 0.625000 0.250000
vt 0.375000 0.250000
vt 0.625000 0.500000
vt 0.375000 0.500000
vt 0.625000 0.750000
vt 0.375000 0.750000
vt 0.625000 1.000000
vt 0.375000 1.000000
vt 0.875000 0.000000
vt 0.875000 0.250000
vt 0.125000 0.000000
vt 0.125000 0.250000
vt 0.671299 0.014480
vt 0.671299 0.125000
vt 0.837330 0.125000
vt 0.837330 0.014480
vt 0.754314 0.014480
vt 0.837330 0.125000
vt 0.671299 0.125000
vt 0.671299 0.250000
vt 0.837330 0.250000
vt 0.625000 0.462330
vt 0.625000 0.296299
vt 0.562500 0.296299
vt 0.562500 0.462330
vt 0.562500 0.462330
vt 0.562500 0.296299
vt 0.500000 0.296299
vt 0.500000 0.462330
vt 0.500000 0.462330
vt 0.500000 0.296299
vt 0.437500 0.296299
vt 0.437500 0.462330
vt 0.437500 0.462330
vt 0.437500 0.296299
vt 0.375000 0.296299
vt 0.375000 0.462330
vt 0.162670 0.250000
vt 0.328701 0.250000
vt 0.328701 0.125000
vt 0.162670 0.125000
vt 0.245685 0.014480
vt 0.162670 0.014480
vt 0.162670 0.125000
vt 0.328701 0.125000
vt 0.328701 0.014480
vt 0.536016 1.000000
vt 0.536016 0.875000
vt 0.541667 0.875000
vt 0.541667 1.000000
vt 0.536016 0.875000
vt 0.536016 0.750000
vt 0.541667 0.750000
vt 0.541667 1.000000
vt 0.541667 1.000000
vt 0.625000 1.000000
vt 0.625000 1.000000
vt 0.458333 1.000000
vt 0.375000 1.000000
vt 0.375000 1.000000
vt 0.458333 1.000000
vt 0.625000 0.875000
vt 0.625000 0.875000
vt 0.625000 0.750000
vt 0.625000 0.750000
vt 0.541667 0.750000
vt 0.541667 0.750000
vt 0.375000 0.875000
vt 0.375000 0.875000
vt 0.458333 0.750000
vt 0.458333 0.750000
vt 0.375000 0.750000
vt 0.375000 0.750000
vt 0.458333 1.000000
vt 0.458333 1.000000
vt 0.458333 1.000000
vt 0.458333 1.000000
vt 0.458333 1.000000
vt 0.458333 1.000000
vt 0.458333 1.000000
vt 0.458333 1.000000
vt 0.541667 1.000000
vt 0.541667 1.000000
vt 0.541667 1.000000
vt 0.541667 1.000000
vt 0.541667 1.000000
vt 0.541667 1.000000
vt 0.541667 1.000000
vt 0.541667 1.000000
vt 0.541667 1.000000
vt 0.541667 1.000000
vt 0.458333 1.000000
vt 0.458333 1.000000
vt 0.625000 1.000000
vt 0.625000 0.875000
vt 0.500747 1.000000
vt 0.532612 1.000000
vt 0.534892 1.000000
vt 0.536016 1.000000
vt 0.536016 1.000000
vt 0.458333 1.000000
vt 0.465478 1.000000
vt 0.465478 1.000000
vt 0.466603 1.000000
vt 0.468882 1.000000
vt 0.375000 0.875000
vt 0.375000 1.000000
vt 0.625000 0.750000
vt 0.500747 0.750000
vt 0.468882 0.750000
vt 0.466603 0.750000
vt 0.465478 0.750000
vt 0.465478 0.750000
vt 0.458333 0.750000
vt 0.536016 0.750000
vt 0.536016 0.750000
vt 0.534892 0.750000
vt 0.532612 0.750000
vt 0.375000 0.750000
vt 0.625000 1.000000
vt 0.625000 0.875000
vt 0.375000 1.000000
vt 0.375000 0.875000
vt 0.625000 0.750000
vt 0.541667 0.750000
vt 0.458333 0.750000
vt 0.375000 0.750000
vt 0.625000 1.000000
vt 0.625000 0.875000
vt 0.375000 1.000000
vt 0.375000 0.875000
vt 0.625000 0.750000
vt 0.541667 0.750000
vt 0.458333 0.750000
vt 0.375000 0.750000
vt 0.625000 1.000000
vt 0.541667 1.000000
vt 0.625000 0.875000
vt 0.458333 1.000000
vt 0.375000 1.000000
vt 0.375000 0.875000
vt 0.625000 0.750000
vt 0.541667 0.750000
vt 0.458333 0.750000
vt 0.375000 0.750000
vt 0.250000 0.000000
vt 0.375000 0.000000
vt 0.375000 0.250000
vt 0.250000 0.250000
vt 0.125000 0.000000
vt 0.125000 0.250000
vt 0.625000 0.000000
vt 0.750000 0.000000
vt 0.750000 0.250000
vt 0.625000 0.250000
vt 0.875000 0.000000
vt 0.875000 0.250000
vt 0.465478 0.875000
vt 0.465478 1.000000
vt 0.458333 0.875000
vt 0.465478 0.750000
vt 0.465478 0.875000
vt 0.541667 0.500000
vt 0.625000 0.500000
vt 0.458333 0.500000
vt 0.375000 0.500000
vt 0.541667 0.375000
vt 0.625000 0.375000
vt 0.458333 0.375000
vt 0.375000 0.375000
vt 0.541667 0.250000
vt 0.458333 0.250000
vt 0.541667 0.000000
vt 0.458333 0.000000
vn 0.000000 0.000000 1.000000
vn 0.000000 0.000000 1.000000
vn 0.000000 0.000000 1.000000
vn 0.000000 0.000000 1.000000
vn 0.000000 1.000000 0.000000
vn 0.000000 1.000000 0.000000
vn 0.000000 1.000000 0.000000
vn 0.000000 1.000000 0.000000
vn 0.000000 0.000000 -1.000000
vn 0.000000 0.000000 -1.000000
vn 0.000000 0.000000 -1.000000
vn 0.000000 0.000000 -1.000000
vn 0.000000 -1.000000 0.000000
vn 0.000000 -1.000000 0.000000
vn 0.000000 -1.000000 0.000000
vn 0.000000 -1.000000 0.000000
vn 1.000000 0.000000 0.000000
vn 1.000000 0.000000 0.000000
vn 1.000000 0.000000 0.000000
vn 1.000000 0.000000 0.000000
vn -1.000000 0.000000 0.000000
vn -1.000000 0.000000 0.000000
vn -1.000000 0.000000 0.000000
vn -1.000000 0.000000 0.000000
vn 0.000000 0.000000 1.000000
vn 0.000000 0.000000 1.000000
vn 0.000000 0.000000 1.000000
vn 0.000000 0.000000 1.000000
vn 0.000000 1.000000 0.000000
vn 0.000000 1.000000 0.000000
vn 0.000000 1.000000 0.000000
vn 0.000000 1.000000 0.000000
vn 0.000000 0.000000 -1.000000
vn 0.000000 0.000000 -1.000000
vn 0.000000 0.000000 -1.000000
vn 0.000000 0.000000 -1.000000
vn 0.000000 -1.000000 0.000000
vn 0.000000 -1.000000 0.000000
vn 0.000000 -1.000000 0.000000
vn 0.000000 -1.000000 0.000000
vn 1.000000 0.000000 0.000000
vn 1.000000 0.000000 0.000000
vn 1.000000 0.000000 0.000000
vn 1.000000 0.000000 0.000000
vn -1.000000 0.000000 0.000000
vn -1.000000 0.000000 0.000000
vn -1.000000 0.000000 0.000000
vn -1.000000 0.000000 0.000000
vn 0.000000 0.000000 1.000000
vn 0.000000 0.000000 1.000000
vn 0.000000 0.000000 1.000000
vn 0.000000 0.000000 1.000000
vn 0.000000 1.000000 0.000000
vn 0.000000 1.000000 0.000000
vn 0.000000 1.000000 0.000000
vn 0.000000 1.000000 0.000000
vn 0.000000 0.000000 -1.000000
vn 0.000000 0.000000 -1.000000
vn 0.000000 0.000000 -1.000000
vn 0.000000 0.000000 -1.000000
vn 0.000000 -1.000000 0.000000
vn 0.000000 -1.000000 0.000000
vn 0.000000 -1.000000 0.000000
vn 0.000000 -1.000000 0.000000
vn 1.000000 0.000000 0.000000
vn 1.000000 0.000000 0.000000
vn 1.000000 0.000000 0.000000
vn 1.000000 0.000000 0.000000
vn -1.000000 0.000000 0.000000
vn -1.000000 0.000000 0.000000
vn -1.000000 0.000000 0.000000
vn -1.000000 0.000000 0.000000
vn -1.000000 -0.000000 0.000000
vn -0.988922 -0.148434 0.000000
vn -0.988922 -0.148434 0.000000
vn -1.000000 -0.000000 0.000000
vn -1.000000 -0.000000 0.000000
vn -0.821816 -0.569754 0.000000
vn -0.821816 -0.569754 0.000000
vn -0.354805 -0.934940 0.000000
vn -0.354805 -0.934940 0.000000
vn -0.025327 -0.999679 0.000000
vn -0.025327 -0.999679 0.000000
vn 0.000000 -1.000000 0.000000
vn 0.000000 -1.000000 0.000000
vn 0.025327 -0.999679 0.000000
vn 0.025327 -0.999679 0.000000
vn 0.354804 -0.934941 0.000000
vn 0.354804 -0.934941 0.000000
vn 0.821817 -0.569752 0.000000
vn 0.821817 -0.569751 0.000000
vn 0.988923 -0.148432 0.000000
vn 0.988923 -0.148433 0.000000
vn 1.000000 0.000000 0.000000
vn 1.000000 0.000000 0.000000
vn 1.000000 0.000000 0.000000
vn 0.000000 -1.000000 0.000000
vn 0.000000 -1.000000 0.000000
vn 0.000000 -1.000000 0.000000
vn 0.000000 -1.000000 0.000000
vn 0.000000 -1.000000 0.000000
vn 0.000000 -1.000000 0.000000
vn -0.000260 0.702068 0.712110
vn -0.001667 0.674189 0.738557
vn -0.005540 0.592026 0.805900
vn -0.005540 0.592026 0.805900
vn 0.000260 0.702068 0.712110
vn 0.005540 0.592026 0.805900
vn 0.005540 0.592026 0.805900
vn 0.001667 0.674189 0.738557
vn 0.727327 0.686291 -0.000000
vn 0.727327 0.686291 -0.000000
vn 0.727327 0.686291 -0.000839
vn 0.727327 0.686291 -0.000839
vn 0.727327 0.686291 0.000839
vn 0.727327 0.686291 0.000839
vn -0.000260 0.702068 -0.712110
vn -0.005540 0.592027 -0.805899
vn -0.005540 0.592027 -0.805899
vn -0.001667 0.674189 -0.738557
vn -0.727327 0.686291 0.000000
vn -0.727327 0.686291 -0.000839
vn -0.727327 0.686291 -0.000839
vn -0.727327 0.686291 0.000000
vn 0.000260 0.702068 -0.712110
vn 0.001667 0.674189 -0.738557
vn 0.005540 0.592026 -0.805900
vn 0.005540 0.592026 -0.805900
vn -0.727327 0.686291 0.000839
vn -0.727327 0.686291 0.000839
vn 0.000000 -1.000000 0.000000
vn 0.000000 -1.000000 0.000000
vn 0.000000 -1.000000 0.000000
vn 0.000000 -1.000000 0.000000
vn 0.000000 0.000000 1.000000
vn 0.000000 0.000000 1.000000
vn 0.000000 0.000000 1.000000
vn 0.000000 0.000000 1.000000
vn 0.000000 1.000000 0.000000
vn 0.000000 1.000000 0.000000
vn 0.000000 1.000000 0.000000
vn 0.000000 1.000000 0.000000
vn 0.000000 0.000000 -1.000000
vn 0.000000 0.000000 -1.000000
vn 0.000000 0.000000 -1.000000
vn 0.000000 0.000000 -1.000000
vn 0.000000 1.000000 0.000000
vn 0.000000 1.000000 0.000000
vn 0.000000 1.000000 0.000000
vn 0.000000 1.000000 0.000000
vn 0.000000 0.000000 1.000000
vn 0.000000 0.000000 1.000000
vn 0.000000 0.000000 1.000000
vn 0.000000 0.000000 1.000000
vn 0.000000 -1.000000 0.000000
vn 0.000000 -1.000000 0.000000
vn 0.000000 -1.000000 0.000000
vn 0.000000 -1.000000 0.000000
vn 0.000000 0.000000 -1.000000
vn 0.000000 0.000000 -1.000000
vn 0.000000 0.000000 -1.000000
vn 0.000000 0.000000 -1.000000
vn 1.000000 0.000000 0.000000
vn 1.000000 0.000000 0.000000
vn 1.000000 0.000000 0.000000
vn 1.000000 0.000000 0.000000
vn -1.000000 0.000000 0.000000
vn -1.000000 0.000000 0.000000
vn -1.000000 0.000000 0.000000
vn -1.000000 0.000000 0.000000
vn -1.000000 0.000000 0.000000
vn -1.000000 0.000000 0.000000
vn -1.000000 0.000000 0.000000
vn -1.000000 0.000000 0.000000
vn 0.000000 1.000000 0.000000
vn 0.000000 1.000000 0.000000
vn 1.000000 0.000000 0.000000
vn 1.000000 0.000000 0.000000
vn 1.000000 0.000000 0.000000
vn 1.000000 0.000000 0.000000
vn 0.000000 -1.000000 0.000000
vn 0.000000 -1.000000 0.000000
vn 0.000000 0.000000 1.000000
vn -0.000000 0.000000 1.000000
vn -0.000000 0.000000 1.000000
vn 0.000000 0.000000 1.000000
vn 1.000000 -0.000000 0.000000
vn 1.000000 -0.000000 0.000000
vn 1.000000 -0.000000 0.000000
vn 1.000000 -0.000000 0.000000
vn -0.000000 0.000000 1.000000
vn -0.000000 0.000000 1.000000
vn -0.000000 0.000000 1.000000
vn -0.000000 0.000000 1.000000
vn -0.000000 0.000000 1.000000
vn -0.000000 0.000000 1.000000
vn -0.000000 0.000000 1.000000
vn -0.000000 0.000000 1.000000
vn -0.000000 0.000000 1.000000
vn -0.000000 0.000000 1.000000
vn -0.000000 0.000000 1.000000
vn -1.000000 0.000000 0.000000
vn -1.000000 0.000000 0.000000
vn -1.000000 0.000000 0.000000
vn -1.000000 0.000000 0.000000
vn 0.000000 0.000000 1.000000
vn 0.000000 0.000000 1.000000
vn 1.000000 0.000000 0.000000
vn 1.000000 0.000000 0.000000
vn 0.000000 -0.000000 -1.000000
vn 0.000000 0.000000 -1.000000
vn 0.000000 0.000000 -1.000000
vn 0.000000 -0.000000 -1.000000
vn 0.000000 -0.000000 -1.000000
vn 0.000000 -0.000000 -1.000000
vn 0.000000 -0.000000 -1.000000
vn 0.000000 -0.000000 -1.000000
vn 0.000000 -0.000000 -1.000000
vn 0.000000 -0.000000 -1.000000
vn 0.000000 -0.000000 -1.000000
vn 0.000000 -0.000000 -1.000000
vn 0.000000 -0.000000 -1.000000
vn 0.000000 -0.000000 -1.000000
vn 0.000000 -0.000000 -1.000000
vn -1.000000 0.000000 0.000000
vn -1.000000 0.000000 0.000000
vn 0.000000 0.000000 -1.000000
vn 0.000000 0.000000 -1.000000
vn 0.000000 1.000000 0.000000
vn 0.000000 1.000000 0.000000
vn 0.000000 1.000000 0.000000
vn 0.000000 1.000000 0.000000
vn 0.000000 1.000000 0.000000
vn 0.000000 1.000000 0.000000
vn 0.000000 1.000000 0.000000
vn 0.000000 1.000000 0.000000
vn 0.000000 1.000000 0.000000
vn 0.000000 1.000000 0.000000
vn 0.000000 1.000000 0.000000
vn 0.000000 1.000000 0.000000
vn 0.000000 1.000000 -0.000000
vn 0.000000 1.000000 -0.000000
vn 0.000000 1.000000 -0.000000
vn 0.000000 1.000000 -0.000000
vn 0.000000 1.000000 -0.000000
vn 0.000000 1.000000 -0.000000
vn 0.000000 1.000000 0.000000
vn 0.000000 1.000000 0.000000
vn 0.000000 0.000000 1.000000
vn 0.000000 0.000000 1.000000
vn 0.000000 0.000000 1.000000
vn 0.000000 0.000000 1.000000
vn 1.000000 0.000000 0.000000
vn 1.000000 0.000000 0.000000
vn 1.000000 0.000000 0.000000
vn 1.000000 0.000000 0.000000
vn -1.000000 0.000000 0.000000
vn -1.000000 -0.000000 0.000000
vn -1.000000 -0.000000 0.000000
vn -1.000000 0.000000 0.000000
vn 0.000000 0.000000 1.000000
vn 0.000000 0.000000 1.000000
vn 0.000000 0.000000 1.000000
vn 0.000000 0.000000 1.000000
vn 1.000000 0.000000 0.000000
vn 1.000000 0.000000 0.000000
vn 0.000000 0.000000 -1.000000
vn 0.000000 0.000000 -1.000000
vn 0.000000 0.000000 -1.000000
vn 0.000000 0.000000 -1.000000
vn 0.000000 0.000000 -1.000000
vn 0.000000 0.000000 -1.000000
vn -1.000000 -0.000000 0.000000
vn -1.000000 -0.000000 0.000000
vn 0.000000 0.000000 -1.000000
vn 0.000000 0.000000 -1.000000
vn 0.000000 -1.000000 0.000000
vn 0.000000 -1.000000 0.000004
vn 0.000000 -1.000000 0.000004
vn 0.000000 -1.000000 0.000001
vn 0.000000 -1.000000 0.000000
vn 0.000000 -1.000000 0.000000
vn 0.000000 -1.000000 -0.000002
vn 0.000000 -1.000000 0.000003
vn 0.000000 -1.000000 -0.000000
vn 0.000000 -1.000000 0.000000
vn 0.000000 -1.000000 0.000000
vn 0.000000 -1.000000 -0.000002
vn 0.000000 -1.000000 0.000000
vn 0.000000 -1.000000 0.000002
vn 0.000000 -1.000000 0.000002
vn 0.000000 -1.000000 -0.000003
vn 0.000000 -1.000000 -0.000004
vn 0.000000 -1.000000 -0.000004
vn 0.000000 -1.000000 -0.000000
vn 0.000000 -1.000000 -0.000001
vn -1.000000 0.000000 0.000000
vn -1.000000 0.000000 0.000000
vn -1.000000 0.000000 0.000000
vn -1.000000 0.000000 0.000000
vn -1.000000 0.000000 0.000000
vn -1.000000 0.000000 0.000000
vn 1.000000 0.000000 0.000000
vn 1.000000 0.000000 0.000000
vn 1.000000 0.000000 0.000000
vn 1.000000 0.000000 0.000000
vn 1.000000 0.000000 0.000000
vn 1.000000 0.000000 0.000000
vn 0.000000 -1.000000 0.000000
vn 0.000000 -1.000000 0.000000
vn 0.000000 -1.000000 0.000000
vn 0.000000 -1.000000 0.000000
vn 0.000000 -1.000000 0.000000
vn 0.000000 -1.000000 0.000000
vn 0.000000 -1.000000 0.000000
vn 0.000000 -1.000000 0.000000
vn 0.000000 -1.000000 0.000000
vn 0.000000 -1.000000 0.000000
vn 0.000000 -1.000000 0.000000
vn 0.000000 -1.000000 0.000000
vn 0.000000 0.000000 -1.000000
vn 0.000000 0.000000 -1.000000
vn 0.000000 0.000000 -1.000000
vn 0.000000 0.000000 -1.000000
vn 0.000000 0.000000 -1.000000
vn 0.000000 0.000000 -1.000000
vn 0.000000 0.000000 -1.000000
vn 0.000000 0.000000 -1.000000
vn 0.000000 1.000000 0.000000
vn 0.000000 1.000000 0.000000
vn 0.000000 1.000000 0.000000
vn 0.000000 1.000000 0.000000
vn 0.000000 1.000000 0.000000
vn 0.000000 1.000000 0.000000
vn 0.000000 1.000000 0.000000
vn 0.000000 1.000000 0.000000
vn 0.000000 1.000000 0.000000
vn 0.000000 1.000000 0.000000
vn 0.000000 1.000000 0.000000
vn 0.000000 1.000000 0.000000
vn 0.000000 0.000000 1.000000
vn 0.000000 0.000000 1.000000
vn 0.000000 0.000000 1.000000
vn 0.000000 0.000000 1.000000
vn 0.000000 0.000000 1.000000
vn 0.000000 0.000000 1.000000
vn 0.000000 0.000000 1.000000
vn 0.000000 0.000000 1.000000
s off
g polySurface2
usemtl blinn1SG
f 1/1/1 2/2/2 4/4/3 3/3/4
f 3/3/5 4/4/6 6/6/7 5/5/8
f 5/5/9 6/6/10 8/8/11 7/7/12
f 7/7/13 8/8/14 2/10/15 1/9/16
f 2/2/17 8/11/18 6/12/19 4/4/20
f 7/13/21 1/1/22 3/3/23 5/14/24
f 9/15/25 10/16/26 12/17/27 11/18/28
f 11/18/29 12/17/30 14/19/31 13/20/32
f 13/20/33 14/19/34 16/21/35 15/22/36
f 15/22/37 16/21/38 10/23/39 9/24/40
f 10/16/41 16/25/42 14/26/43 12/17/44
f 15/27/45 9/15/46 11/18/47 13/28/48
f 17/29/49 18/30/50 20/31/51 19/32/52
f 19/32/53 20/31/54 22/33/55 21/34/56
f 21/34/57 22/33/58 24/35/59 23/36/60
f 23/36/61 24/35/62 18/37/63 17/38/64
f 18/30/65 24/39/66 22/40/67 20/31/68
f 23/41/69 17/29/70 19/32/71 21/42/72
s 1
f 25/43/73 26/44/74 27/45/75 28/46/76 29/47/77
f 27/48/75 26/49/74 30/50/78 31/51/79
s 2
f 31/52/80 30/53/81 32/54/82 33/55/83
f 33/56/83 32/57/82 34/58/84 35/59/85
f 35/60/85 34/61/84 36/62/86 37/63/87
f 37/64/87 36/65/86 38/66/88 39/67/89
s 3
f 39/68/90 38/69/91 40/70/92 41/71/93
f 42/72/94 43/73/95 41/74/93 40/75/92 44/76/96
s 4
f 25/77/97 29/78/98 45/79/99 46/80/100
f 29/81/98 28/82/101 47/83/102 45/79/99
s 5
f 48/84/103 49/85/104 51/86/105 50/87/106
f 52/88/107 53/89/108 55/90/109 54/91/110
s 6
f 56/92/111 57/93/112 50/87/113 51/86/114
f 58/94/115 59/95/116 57/93/112 56/92/111
s 7
f 60/96/117 59/95/118 58/94/119 61/97/120
s 8
f 62/98/121 55/90/122 53/89/123 63/99/124
s 7
f 64/100/125 65/101/126 67/102/127 66/103/128
s 8
f 62/98/121 63/99/124 66/103/129 67/102/130
s 5
f 52/88/107 54/91/110 49/85/104 48/84/103
s 7
f 65/101/126 64/100/125 60/96/117 61/97/120
s 9
f 68/104/131 69/105/132 70/106/133 71/107/134
s 10
f 72/108/135 68/104/136 71/107/137 73/109/138
s 11
f 74/110/139 72/108/140 73/109/141 75/111/142
s off
f 69/105/143 74/110/144 75/111/145 70/106/146
s 11
f 76/112/147 77/113/148 78/114/149 79/115/150
s 10
f 80/116/151 76/112/152 79/115/153 81/117/154
s 9
f 82/118/155 80/116/156 81/117/157 83/119/158
s off
f 77/113/159 82/118/160 83/119/161 78/114/162
f 70/106/163 75/111/164 73/109/165 71/107/166
s 11
f 74/110/139 77/113/148 76/112/147 72/108/140
s off
f 78/114/167 83/119/168 81/117/169 79/115/170
s 9
f 82/118/155 69/105/132 68/104/131 80/116/156
s off
f 84/120/171 85/121/172 82/118/173 77/113/174
s 11
f 86/122/175 84/120/176 77/113/148 74/110/139
s off
f 87/123/177 86/122/178 74/110/179 69/105/180
s 9
f 85/121/181 87/123/182 69/105/132 82/118/155
s 12
f 51/86/183 49/85/184 46/80/185 88/124/186
s 13
f 56/92/187 51/86/188 88/124/189 89/125/190
s 12
f 34/126/191 32/127/192 30/128/193 26/129/194 25/130/195 46/80/185 49/85/184 54/91/196 90/131/197 44/132/198 40/133/199 38/134/200 36/135/201
s 14
f 55/90/202 62/98/203 91/136/204 92/137/205
s 12
f 54/91/196 55/90/206 92/137/207 90/131/197
s 13
f 58/94/208 56/92/187 89/125/190 93/138/209
s 15
f 61/97/210 58/94/211 93/138/212 47/83/213
f 35/139/214 37/140/215 39/141/216 41/142/217 43/143/218 94/144/219 65/101/220 61/97/210 47/83/213 28/145/221 27/146/222 31/147/223 33/148/224
s 14
f 62/98/203 67/102/225 95/149/226 91/136/204
s 15
f 67/102/227 65/101/220 94/144/219 95/149/228
s 16
f 96/150/229 84/120/230 48/84/231 50/87/232
f 97/151/233 96/150/229 50/87/232 57/93/234
f 84/120/230 86/122/235 52/88/236 48/84/231
f 98/152/237 99/153/238 63/99/239 53/89/240
f 86/122/235 98/152/237 53/89/240 52/88/236
f 100/154/241 97/151/233 57/93/234 59/95/242
f 101/155/243 100/154/241 59/95/242 60/96/244
f 102/156/245 101/155/243 60/96/244 64/100/246
f 99/153/238 103/157/247 66/103/248 63/99/239
f 103/157/247 102/156/245 64/100/246 66/103/248
s off
f 104/158/249 85/121/250 84/120/251 96/150/252
s 18
f 105/159/253 104/158/254 96/150/255 97/151/256
s 10
f 80/116/151 68/104/136 72/108/135 76/112/152
s 19
f 106/160/257 107/161/258 99/153/259 98/152/260
s off
f 87/123/261 106/160/262 98/152/263 86/122/264
s 18
f 108/162/265 105/159/253 97/151/256 100/154/266
s 20
f 109/163/267 108/162/268 100/154/269 101/155/270
f 110/164/271 109/163/267 101/155/270 102/156/272
s 19
f 107/161/258 111/165/273 103/157/274 99/153/259
s 20
f 111/165/275 110/164/271 102/156/272 103/157/276
s 21
f 112/166/277 113/167/278 85/121/279 104/158/280
f 114/168/281 112/166/277 104/158/280 105/159/282
f 113/167/278 115/169/283 87/123/284 85/121/279
f 116/170/285 117/171/286 107/161/287 106/160/288
f 115/169/283 116/170/285 106/160/288 87/123/284
f 118/172/289 114/168/281 105/159/282 108/162/290
f 119/173/291 118/172/289 108/162/290 109/163/292
f 120/174/293 119/173/291 109/163/292 110/164/294
f 117/171/286 121/175/295 111/165/296 107/161/287
f 121/175/295 120/174/293 110/164/294 111/165/296
s 23
f 117/176/297 116/177/298 122/178/299 123/179/300
f 121/180/301 117/176/297 123/179/300 124/181/302
s 24
f 112/182/303 114/183/304 125/184/305 126/185/306
f 114/183/304 118/186/307 127/187/308 125/184/305
s 4
f 45/79/99 89/125/309 88/124/310 46/80/100
s 25
f 42/188/311 44/189/312 90/131/313 128/190/314
f 91/136/315 128/190/314 90/131/313 92/137/316
s 4
f 47/83/102 93/138/317 89/125/309 45/79/99
s 25
f 43/191/318 42/192/311 128/190/314 94/144/319
f 95/149/320 94/144/319 128/190/314 91/136/315
s 26
f 129/193/321 127/194/322 118/172/323 119/173/324
f 130/195/325 129/193/321 119/173/324 120/174/326
f 124/196/327 130/195/325 120/174/326 121/175/328
s 27
f 131/197/329 125/198/330 127/194/331 129/193/332
f 132/199/333 131/197/329 129/193/332 130/195/334
f 123/200/335 132/199/333 130/195/334 124/196/336
f 133/201/337 126/185/338 125/198/330 131/197/329
f 134/202/339 133/201/337 131/197/329 132/199/333
f 122/178/340 134/202/339 132/199/333 123/200/335
s 28
f 113/203/341 112/182/342 126/185/343 133/201/344
f 115/204/345 113/203/341 133/201/344 134/202/346
f 116/177/347 115/204/345 134/202/346 122/178/348
