# This file uses centimeters as units for non-parametric coordinates.

mtllib long_rug.mtl
g default
v -6.000000 -0.336414 3.000000
v -5.600006 -0.326151 3.000000
v 5.600006 -0.326151 3.000000
v 6.000000 -0.334941 3.000000
v -6.000000 0.163586 3.000000
v -5.600006 0.326151 3.000000
v 5.600006 0.326151 3.000000
v 6.000000 0.128948 3.000000
v -6.000000 0.163586 0.000000
v -5.600006 0.326151 0.000000
v 5.600006 0.326151 0.000000
v 6.000000 0.128948 0.000000
v -6.000000 0.163586 -3.000000
v -5.600006 0.326151 -3.000000
v 5.600006 0.326151 -3.000000
v 6.000000 0.128948 -3.000000
v -6.000000 -0.336414 -3.000000
v -5.600006 -0.326151 -3.000000
v 5.600006 -0.326151 -3.000000
v 6.000000 -0.334941 -3.000000
v -6.000000 -0.336414 0.000000
v -5.600006 -0.326151 0.000000
v 5.600006 -0.326151 0.000000
v 6.000000 -0.334941 0.000000
vt 0.532973 0.532692
vt 0.533509 0.514936
vt 0.567549 0.514936
vt 0.559066 0.532692
vt 0.533509 0.017756
vt 0.567549 0.017756
vt 0.533050 0.000000
vt 0.557258 0.000000
vt 0.621006 0.009563
vt 0.636479 0.000000
vt 0.718785 0.133173
vt 0.703311 0.142736
vt 0.801090 0.266346
vt 0.785617 0.275910
vt 0.684431 0.154405
vt 0.602125 0.021232
vt 0.766736 0.287578
vt 0.266628 0.584471
vt 0.266628 0.000000
vt 0.399801 0.000000
vt 0.399801 0.584471
vt 0.532973 0.000000
vt 0.532973 0.584471
vt 0.835389 0.287544
vt 0.818607 0.277173
vt 0.900913 0.143999
vt 0.917695 0.154371
vt 0.801090 0.266346
vt 0.883396 0.133173
vt 0.983218 0.010826
vt 1.000000 0.021198
vt 0.965701 0.000000
vt 0.593642 0.000000
vt 0.602125 0.017756
vt 0.568085 0.017756
vt 0.567549 0.000000
vt 0.602125 0.514936
vt 0.568085 0.514936
vt 0.591834 0.532692
vt 0.567626 0.532692
vt 0.000000 0.626218
vt 0.000282 0.605344
vt 0.133455 0.605344
vt 0.133173 0.626218
vt 0.000282 0.020874
vt 0.133455 0.020874
vt 0.266628 0.605344
vt 0.266346 0.626218
vt 0.000040 0.000000
vt 0.133213 0.000000
vt 0.266628 0.020874
vt 0.266386 0.000000
vn 0.000000 0.000000 1.000000
vn 0.000000 0.000000 1.000000
vn 0.000000 0.000000 1.000000
vn 0.000000 0.000000 1.000000
vn 0.000000 0.000000 1.000000
vn 0.000000 0.000000 1.000000
vn 0.000001 0.000000 1.000000
vn 0.000001 0.000000 1.000000
vn -0.376510 0.926413 0.000000
vn -0.014013 0.999902 0.000000
vn -0.014013 0.999902 0.000000
vn -0.376510 0.926413 0.000000
vn 0.016998 0.999856 0.000000
vn 0.016998 0.999856 0.000000
vn 0.442195 0.896919 0.000000
vn 0.442195 0.896919 0.000000
vn -0.014013 0.999902 0.000000
vn -0.376510 0.926413 0.000000
vn 0.016998 0.999856 0.000000
vn 0.442195 0.896919 0.000000
vn 0.000000 0.000000 -1.000000
vn 0.000000 0.000000 -1.000000
vn 0.000000 0.000000 -1.000000
vn 0.000000 0.000000 -1.000000
vn 0.000000 0.000000 -1.000000
vn 0.000000 0.000000 -1.000000
vn 0.000001 0.000000 -1.000000
vn 0.000001 0.000000 -1.000000
vn 0.025649 -0.999671 0.000000
vn 0.000885 -1.000000 0.000000
vn 0.000885 -1.000000 0.000000
vn 0.025649 -0.999671 0.000000
vn -0.000758 -1.000000 0.000000
vn -0.000758 -1.000000 0.000000
vn -0.021971 -0.999759 0.000000
vn -0.021971 -0.999759 0.000000
vn 0.000885 -1.000000 0.000000
vn 0.025649 -0.999671 0.000000
vn -0.000758 -1.000000 0.000000
vn -0.021971 -0.999759 0.000000
vn 1.000000 0.000000 0.000000
vn 1.000000 0.000000 0.000000
vn 1.000000 0.000000 0.000000
vn 1.000000 0.000000 0.000000
vn 1.000000 0.000000 0.000000
vn 1.000000 0.000000 0.000000
vn -1.000000 0.000000 0.000000
vn -1.000000 0.000000 0.000000
vn -1.000000 0.000000 0.000000
vn -1.000000 0.000000 0.000000
vn -1.000000 0.000000 0.000000
vn -1.000000 0.000000 0.000000
s 1
g pCube1
usemtl initialShadingGroup
f 1/1/1 2/2/2 6/3/3 5/4/4
f 2/2/2 3/5/5 7/6/6 6/3/3
f 3/5/5 4/7/7 8/8/8 7/6/6
s 2
f 5/9/9 6/10/10 10/11/11 9/12/12
f 6/18/10 7/19/13 11/20/14 10/21/11
f 7/24/13 8/25/15 12/26/16 11/27/14
f 9/12/12 10/11/11 14/13/17 13/14/18
f 10/21/11 11/20/14 15/22/19 14/23/17
f 11/27/14 12/26/16 16/30/20 15/31/19
s 3
f 13/33/21 14/34/22 18/35/23 17/36/24
f 14/34/22 15/37/25 19/38/26 18/35/23
f 15/37/25 16/39/27 20/40/28 19/38/26
s 4
f 17/41/29 18/42/30 22/43/31 21/44/32
f 18/42/30 19/45/33 23/46/34 22/43/31
f 19/45/33 20/49/35 24/50/36 23/46/34
f 21/44/32 22/43/31 2/47/37 1/48/38
f 22/43/31 23/46/34 3/51/39 2/47/37
f 23/46/34 24/50/36 4/52/40 3/51/39
s 5
f 24/29/41 20/32/42 16/30/43 12/26/44
f 4/28/45 24/29/41 12/26/44 8/25/46
s 6
f 17/17/47 21/15/48 9/12/49 13/14/50
f 21/15/48 1/16/51 5/9/52 9/12/49
