# This file uses centimeters as units for non-parametric coordinates.

mtllib nail_polish.mtl
g default
v -4.216817 -3.569405 -2.074942
v -2.108408 -3.569405 -2.985610
v 0.000000 -3.569405 -3.400278
v 2.108408 -3.569405 -2.985610
v 4.216817 -3.569405 -2.074942
v -4.216817 -3.569405 2.074942
v -2.108408 -3.569405 2.985610
v 0.000000 -3.569405 3.400278
v 2.108408 -3.569405 2.985610
v 4.216817 -3.569405 2.074942
v -4.015581 -1.189802 1.975921
v -2.007790 -1.189802 2.843130
v 0.000000 -1.189802 3.238009
v 2.007790 -1.189802 2.843130
v 4.015580 -1.189802 1.975921
v -3.747704 1.269173 1.844108
v -1.873852 1.269173 2.653467
v 0.000000 1.269173 3.022004
v 1.873852 1.269173 2.653467
v 3.747704 1.269173 1.844108
v -2.753955 4.169921 1.355121
v -1.376978 4.169921 1.949868
v -0.000000 4.169921 2.220683
v 1.376978 4.169921 1.949868
v 2.753955 4.169921 1.355121
v -2.753955 4.169921 -1.355121
v -1.376978 4.169921 -1.949868
v -0.000000 4.169921 -2.220683
v 1.376978 4.169921 -1.949868
v 2.753955 4.169921 -1.355121
v -3.747704 1.269173 -1.844108
v -1.873852 1.269173 -2.653467
v 0.000000 1.269173 -3.022004
v 1.873852 1.269173 -2.653467
v 3.747704 1.269173 -1.844108
v -4.015581 -1.189802 -1.975921
v -2.007790 -1.189802 -2.843130
v 0.000000 -1.189802 -3.238009
v 2.007790 -1.189802 -2.843130
v 4.015580 -1.189802 -1.975921
v 2.219723 4.249292 -0.000000
v -2.219723 4.249292 -0.000000
v -3.044651 4.169921 -0.000000
v -4.143294 1.269173 0.000000
v -4.439447 -1.189802 0.000000
v -4.661925 -3.569405 0.000000
v -2.219723 -3.569405 0.000000
v 0.000000 -3.569405 0.000000
v 2.219723 -3.569405 0.000000
v 4.661924 -3.569405 0.000000
v 4.439446 -1.189802 0.000000
v 4.143294 1.269173 0.000000
v 3.044651 4.169921 -0.000000
v -1.376978 12.283314 1.949868
v -0.000000 12.283314 2.220683
v -0.000000 12.362684 -0.000000
v -2.219723 12.362684 -0.000000
v 1.376978 12.283314 1.949868
v 2.219723 12.362684 -0.000000
v 1.376978 12.283314 -1.949868
v -0.000000 12.283314 -2.220683
v -1.376978 12.283314 -1.949868
v 2.188379 12.322999 0.974934
v 2.188379 4.209606 0.974934
v 2.148030 12.322999 -1.086553
v 2.148030 4.209606 -1.086553
v -2.148030 4.209606 -1.086553
v -2.148030 12.322999 -1.086553
v -2.188379 4.209606 0.974934
v -2.188379 12.322999 0.974934
vt 0.375000 0.000000
vt 0.437500 0.000000
vt 0.500000 0.000000
vt 0.562500 0.000000
vt 0.625000 0.000000
vt 0.375000 0.250000
vt 0.437500 0.250000
vt 0.500000 0.250000
vt 0.562500 0.250000
vt 0.625000 0.250000
vt 0.375000 0.333333
vt 0.437500 0.333333
vt 0.500000 0.333333
vt 0.562500 0.333333
vt 0.625000 0.333333
vt 0.375000 0.416667
vt 0.437500 0.416667
vt 0.500000 0.416667
vt 0.562500 0.416667
vt 0.625000 0.416667
vt 0.375000 0.500000
vt 0.437500 0.500000
vt 0.500000 0.500000
vt 0.562500 0.500000
vt 0.625000 0.500000
vt 0.375000 0.750000
vt 0.437500 0.750000
vt 0.500000 0.750000
vt 0.562500 0.750000
vt 0.625000 0.750000
vt 0.375000 0.833333
vt 0.437500 0.833333
vt 0.500000 0.833333
vt 0.562500 0.833333
vt 0.625000 0.833333
vt 0.375000 0.916667
vt 0.437500 0.916667
vt 0.500000 0.916667
vt 0.562500 0.916667
vt 0.625000 0.916667
vt 0.375000 1.000000
vt 0.437500 1.000000
vt 0.500000 1.000000
vt 0.562500 1.000000
vt 0.625000 1.000000
vt 0.875000 0.000000
vt 0.791667 0.000000
vt 0.708333 0.000000
vt 0.875000 0.250000
vt 0.791667 0.250000
vt 0.708333 0.250000
vt 0.125000 0.000000
vt 0.208333 0.000000
vt 0.291667 0.000000
vt 0.125000 0.250000
vt 0.208333 0.250000
vt 0.291667 0.250000
vt 0.562500 0.625000
vt 0.500000 0.625000
vt 0.437500 0.625000
vt 0.125000 0.125000
vt 0.375000 0.625000
vt 0.208333 0.125000
vt 0.291667 0.125000
vt 0.375000 0.125000
vt 0.437500 0.125000
vt 0.500000 0.125000
vt 0.562500 0.125000
vt 0.625000 0.125000
vt 0.708333 0.125000
vt 0.791667 0.125000
vt 0.625000 0.625000
vt 0.875000 0.125000
vt 0.437500 0.500000
vt 0.500000 0.500000
vt 0.437500 0.625000
vt 0.562500 0.500000
vt 0.562500 0.625000
vt 0.562500 0.750000
vt 0.500000 0.750000
vt 0.437500 0.750000
vt 0.562500 0.562500
vt 0.562500 0.562500
vt 0.562500 0.687500
vt 0.562500 0.687500
vt 0.437500 0.687500
vt 0.437500 0.687500
vt 0.437500 0.562500
vt 0.437500 0.562500
vn 0.000000 -1.000000 0.000000
vn 0.000000 -1.000000 0.000000
vn 0.000000 -1.000000 0.000000
vn 0.000000 -1.000000 0.000000
vn 0.000000 -1.000000 0.000000
vn 0.000000 -1.000000 0.000000
vn 0.000000 -1.000000 -0.000000
vn 0.000000 -1.000000 -0.000000
vn 0.000000 -1.000000 -0.000000
vn 0.000000 -1.000000 -0.000000
vn -0.395500 0.071550 0.915675
vn -0.300570 0.069663 0.951212
vn -0.299076 0.079437 0.950917
vn -0.395207 0.081207 0.914996
vn 0.000000 0.068033 0.997683
vn 0.000000 0.077562 0.996988
vn 0.300570 0.069663 0.951212
vn 0.299076 0.079437 0.950917
vn 0.395500 0.071550 0.915675
vn 0.395207 0.081207 0.914996
vn -0.296701 0.181842 0.937498
vn -0.390207 0.177689 0.903419
vn 0.000000 0.176584 0.984286
vn 0.296701 0.181842 0.937498
vn 0.390207 0.177689 0.903419
vn -0.390207 0.177689 -0.903419
vn -0.296701 0.181842 -0.937498
vn -0.299076 0.079437 -0.950917
vn -0.395207 0.081207 -0.914996
vn 0.000000 0.176584 -0.984286
vn 0.000000 0.077562 -0.996988
vn 0.296701 0.181842 -0.937498
vn 0.299076 0.079437 -0.950917
vn 0.390207 0.177689 -0.903419
vn 0.395207 0.081207 -0.914995
vn -0.300570 0.069664 -0.951212
vn -0.395500 0.071550 -0.915675
vn 0.000000 0.068034 -0.997683
vn 0.300570 0.069664 -0.951212
vn 0.395500 0.071550 -0.915675
vn 0.994366 0.105999 0.000000
vn 0.971352 0.237647 -0.000000
vn 0.951078 0.232005 0.204021
vn 0.972491 0.103636 0.208615
vn 0.995658 0.093088 0.000000
vn 0.973696 0.091035 0.208873
vn -0.971352 0.237647 -0.000000
vn -0.994366 0.105999 0.000000
vn -0.972491 0.103636 0.208615
vn -0.951078 0.232005 0.204021
vn -0.995658 0.093088 0.000000
vn -0.973696 0.091035 0.208874
vn -0.951078 0.232005 -0.204021
vn -0.972491 0.103636 -0.208615
vn -0.973696 0.091035 -0.208874
vn 0.000000 -1.000000 -0.000000
vn 0.000000 -1.000000 -0.000000
vn 0.000000 -1.000000 0.000000
vn 0.000000 -1.000000 0.000000
vn 0.000000 -1.000000 0.000000
vn 0.973696 0.091035 -0.208873
vn 0.972491 0.103636 -0.208615
vn 0.951078 0.232005 -0.204021
vn 0.238687 0.131338 0.962174
vn -0.000000 0.083560 0.996503
vn 0.380765 0.279051 0.881560
vn -0.000000 -0.000000 1.000000
vn 0.192977 -0.000000 0.981203
vn 0.768626 -0.000000 0.639698
vn 0.768626 -0.000000 0.639698
vn 0.768626 -0.000000 0.639698
vn 0.768626 -0.000000 0.639698
vn 0.000000 0.083560 -0.996503
vn 0.238687 0.131338 -0.962174
vn 0.380765 0.279051 -0.881560
vn 0.935173 0.354192 0.000000
vn 0.916905 0.347273 0.196691
vn 0.916905 0.347273 -0.196691
vn 0.192977 -0.000000 -0.981203
vn 0.000000 -0.000000 -1.000000
vn 0.000000 1.000000 0.000196
vn 0.002099 0.999998 0.000624
vn 0.001547 0.999263 -0.038348
vn 0.001547 0.999263 -0.038348
vn 0.000000 0.999264 -0.038348
vn 0.062734 0.998030 -0.001058
vn 0.062714 0.998031 -0.000631
vn 0.064592 0.997057 -0.041297
vn 0.064592 0.997057 -0.041297
vn 0.064592 0.997057 -0.041297
vn 0.999484 0.000000 0.032134
vn 0.999484 0.000000 0.032134
vn 0.999484 0.000000 0.032134
vn 0.999484 0.000000 0.032134
vn 0.745837 0.000000 -0.666129
vn 0.745837 0.000000 -0.666129
vn 0.745837 0.000000 -0.666129
vn 0.745837 0.000000 -0.666129
vn 0.000000 0.999247 0.038813
vn 0.002637 0.999243 0.038813
vn 0.002637 0.999243 0.038813
vn 0.060743 0.997360 0.039802
vn 0.060743 0.997360 0.039802
vn 0.060743 0.997360 0.039802
vn 0.997830 0.000000 -0.065840
vn 0.997830 0.000000 -0.065840
vn 0.997830 0.000000 -0.065840
vn 0.997830 0.000000 -0.065840
vn -0.380765 0.279051 -0.881560
vn -0.238687 0.131338 -0.962174
vn -0.192977 -0.000000 -0.981203
vn -0.745837 -0.000000 -0.666129
vn -0.745837 -0.000000 -0.666129
vn -0.745837 -0.000000 -0.666129
vn -0.745837 -0.000000 -0.666129
vn -0.380765 0.279051 0.881560
vn -0.238687 0.131338 0.962174
vn -0.192977 -0.000000 0.981203
vn -0.060743 0.997360 0.039802
vn -0.060743 0.997360 0.039802
vn -0.060743 0.997360 0.039802
vn -0.062734 0.998030 -0.001057
vn -0.062714 0.998031 -0.000631
vn -0.916905 0.347273 0.196691
vn -0.935173 0.354192 -0.000000
vn -0.916905 0.347273 -0.196691
vn -0.768626 -0.000000 0.639699
vn -0.768626 -0.000000 0.639698
vn -0.768626 -0.000000 0.639699
vn -0.768626 -0.000000 0.639699
vn -0.997830 0.000000 -0.065839
vn -0.997830 0.000000 -0.065839
vn -0.997830 0.000000 -0.065839
vn -0.997830 0.000000 -0.065839
vn -0.002637 0.999243 0.038813
vn -0.002099 0.999998 0.000624
vn -0.002637 0.999243 0.038813
vn -0.064592 0.997057 -0.041296
vn -0.064592 0.997057 -0.041296
vn -0.064592 0.997057 -0.041296
vn -0.001547 0.999263 -0.038349
vn -0.001547 0.999263 -0.038349
vn -0.999484 0.000000 0.032134
vn -0.999484 0.000000 0.032134
vn -0.999484 0.000000 0.032134
vn -0.999484 0.000000 0.032134
s 1
g pCube1
usemtl blinn1SG
f 46/65/1 47/66/2 7/7/3 6/6/4
f 47/66/2 48/67/5 8/8/6 7/7/3
f 48/67/5 49/68/7 9/9/8 8/8/6
f 49/68/7 50/69/9 10/10/10 9/9/8
s 2
f 6/6/11 7/7/12 12/12/13 11/11/14
f 7/7/12 8/8/15 13/13/16 12/12/13
f 8/8/15 9/9/17 14/14/18 13/13/16
f 9/9/17 10/10/19 15/15/20 14/14/18
f 11/11/14 12/12/13 17/17/21 16/16/22
f 12/12/13 13/13/16 18/18/23 17/17/21
f 13/13/16 14/14/18 19/19/24 18/18/23
f 14/14/18 15/15/20 20/20/25 19/19/24
s 3
f 31/31/26 32/32/27 37/37/28 36/36/29
f 32/32/27 33/33/30 38/38/31 37/37/28
f 33/33/30 34/34/32 39/39/33 38/38/31
f 34/34/32 35/35/34 40/40/35 39/39/33
f 36/36/29 37/37/28 2/42/36 1/41/37
f 37/37/28 38/38/31 3/43/38 2/42/36
f 38/38/31 39/39/33 4/44/39 3/43/38
f 39/39/33 40/40/35 5/45/40 4/44/39
s 4
f 51/70/41 52/71/42 20/50/43 15/51/44
f 50/69/45 51/70/41 15/51/44 10/10/46
s 5
f 44/63/47 45/64/48 11/57/49 16/56/50
f 45/64/48 46/65/51 6/6/52 11/57/49
f 31/53/53 36/54/54 45/64/48 44/63/47
f 36/54/54 1/1/55 46/65/51 45/64/48
s 1
f 1/1/56 2/2/57 47/66/2 46/65/1
f 2/2/57 3/3/58 48/67/5 47/66/2
f 3/3/58 4/4/59 49/68/7 48/67/5
f 4/4/59 5/5/60 50/69/9 49/68/7
s 4
f 5/5/61 40/48/62 51/70/41 50/69/45
f 40/48/62 35/47/63 52/71/42 51/70/41
s 2
f 18/18/23 19/19/24 24/24/64 23/23/65
f 19/19/24 20/20/25 25/25/66 24/24/64
f 55/75/67 23/23/65 24/24/64 58/77/68
s off
f 64/83/69 63/82/70 58/77/71 24/24/72
s 3
f 33/33/30 28/28/73 29/29/74 34/34/32
f 34/34/32 29/29/74 30/30/75 35/35/34
s 4
f 52/71/42 53/73/76 25/49/77 20/50/43
f 52/71/42 35/47/63 30/46/78 53/73/76
s 3
f 60/79/79 29/29/74 28/28/73 61/80/80
s 6
f 56/59/81 59/78/82 65/84/83 60/79/84 61/80/85
s 7
f 41/58/86 53/72/87 30/30/88 29/29/89 66/85/90
s off
f 63/82/91 64/83/92 41/58/93 59/78/94
f 65/84/95 66/85/96 29/29/97 60/79/98
s 6
f 56/59/81 55/75/99 58/77/100 63/82/101 59/78/82
s 7
f 25/25/102 53/72/87 41/58/86 64/83/103 24/24/104
s off
f 66/85/105 65/84/106 59/78/107 41/58/108
s 3
f 26/26/109 27/27/110 32/32/27 31/31/26
f 27/27/110 28/28/73 33/33/30 32/32/27
f 62/81/111 61/80/80 28/28/73 27/27/110
s off
f 67/86/112 68/87/113 62/81/114 27/27/115
s 2
f 21/21/116 16/16/22 17/17/21 22/22/117
f 22/22/117 17/17/21 18/18/23 23/23/65
f 55/75/67 54/74/118 22/22/117 23/23/65
s 8
f 21/21/119 22/22/120 69/88/121 42/60/122 43/62/123
s 5
f 21/55/124 43/61/125 44/63/47 16/56/50
f 26/52/126 31/53/53 44/63/47 43/61/125
s off
f 70/89/127 69/88/128 22/22/129 54/74/130
f 68/87/131 67/86/132 42/60/133 57/76/134
s 6
f 54/74/135 55/75/99 56/59/81 57/76/136 70/89/137
s 8
f 26/26/138 43/62/123 42/60/122 67/86/139 27/27/140
s 6
f 56/59/81 61/80/85 62/81/141 68/87/142 57/76/136
s off
f 69/88/143 70/89/144 57/76/145 42/60/146
