# This file uses centimeters as units for non-parametric coordinates.

mtllib tv_small.mtl
g default
v -0.767383 -0.440929 0.040813
v 0.007677 -0.440929 0.040813
v 0.782738 -0.440929 0.040813
v -0.767383 -0.440929 0.128092
v 0.007677 -0.440929 0.128092
v 0.782738 -0.440929 0.128092
v -0.767383 0.479316 0.128092
v 0.007677 0.479316 0.128092
v 0.782738 0.479316 0.128092
v -0.767383 0.479316 0.040813
v 0.007677 0.479316 0.040813
v 0.782738 0.479316 0.040813
v -0.652788 -0.359378 0.127402
v 0.007677 -0.359378 0.127402
v 0.007677 0.397765 0.127402
v -0.652788 0.397765 0.127402
v 0.668143 -0.359378 0.127402
v 0.668143 0.397765 0.127402
v -0.652788 -0.359378 0.117144
v 0.007677 -0.400879 0.116582
v 0.007677 0.439266 0.116582
v -0.652788 0.397765 0.117144
v 0.740547 -0.400879 0.116582
v 0.740547 0.439266 0.116582
v -0.063146 -0.440929 0.040813
v 0.007677 -0.440929 0.040813
v 0.007677 -0.440929 0.128092
v -0.063146 -0.440929 0.128092
v 0.078501 -0.440929 0.040813
v 0.078501 -0.440929 0.128092
v -0.063146 -0.484568 0.040813
v 0.007677 -0.484568 0.040813
v 0.007677 -0.484568 0.128092
v -0.063146 -0.484568 0.128092
v 0.078501 -0.484568 0.040813
v 0.078501 -0.484568 0.128092
v -0.287943 -0.484568 -0.140593
v 0.007677 -0.484568 -0.140593
v 0.007677 -0.484568 0.182221
v -0.287943 -0.484568 0.182221
v 0.303299 -0.484568 -0.140593
v 0.303299 -0.484568 0.182221
v -0.287943 -0.516718 -0.140593
v 0.007677 -0.516718 -0.140593
v 0.007677 -0.516718 0.182221
v -0.287943 -0.516718 0.182221
v 0.303299 -0.516718 -0.140593
v 0.303299 -0.516718 0.182221
v -0.644665 0.333611 -0.234581
v 0.007677 0.333611 -0.234581
v 0.007677 -0.295223 -0.234581
v -0.644665 -0.295223 -0.234581
v 0.660020 0.333611 -0.234581
v 0.660020 -0.295223 -0.234581
vt 0.375000 0.000000
vt 0.500000 0.000000
vt 0.625000 0.000000
vt 0.375000 0.250000
vt 0.500000 0.250000
vt 0.625000 0.250000
vt 0.375000 0.500000
vt 0.500000 0.500000
vt 0.625000 0.500000
vt 0.375000 0.750000
vt 0.500000 0.750000
vt 0.625000 0.750000
vt 0.375000 1.000000
vt 0.500000 1.000000
vt 0.625000 1.000000
vt 0.875000 0.000000
vt 0.875000 0.250000
vt 0.125000 0.000000
vt 0.125000 0.250000
vt 0.375000 0.250000
vt 0.500000 0.250000
vt 0.500000 0.500000
vt 0.375000 0.500000
vt 0.625000 0.250000
vt 0.625000 0.500000
vt 0.375000 0.250000
vt 0.500000 0.250000
vt 0.500000 0.500000
vt 0.375000 0.500000
vt 0.625000 0.250000
vt 0.625000 0.500000
vt 0.375000 0.000000
vt 0.500000 0.000000
vt 0.500000 0.250000
vt 0.375000 0.250000
vt 0.625000 0.000000
vt 0.625000 0.250000
vt 0.375000 0.000000
vt 0.500000 0.000000
vt 0.500000 0.250000
vt 0.375000 0.250000
vt 0.625000 0.000000
vt 0.625000 0.250000
vt 0.375000 0.000000
vt 0.500000 0.000000
vt 0.500000 0.250000
vt 0.375000 0.250000
vt 0.625000 0.000000
vt 0.625000 0.250000
vt 0.375000 0.000000
vt 0.500000 0.000000
vt 0.500000 0.250000
vt 0.375000 0.250000
vt 0.625000 0.000000
vt 0.625000 0.250000
vt 0.375000 0.750000
vt 0.500000 0.750000
vt 0.500000 1.000000
vt 0.375000 1.000000
vt 0.625000 0.750000
vt 0.625000 1.000000
vn 0.000000 -1.000000 0.000000
vn 0.000000 -1.000000 0.000000
vn 0.000000 -1.000000 0.000000
vn 0.000000 -1.000000 0.000000
vn 0.000000 -1.000000 0.000000
vn 0.000000 -1.000000 0.000000
vn 0.000851 0.000000 1.000000
vn 0.000384 0.000000 1.000000
vn 0.000384 0.000000 1.000000
vn 0.000851 0.000000 1.000000
vn 0.000000 0.000000 1.000000
vn 0.000000 0.000000 1.000000
vn 0.000000 1.000000 0.000000
vn 0.000000 1.000000 0.000000
vn 0.000000 0.930513 -0.366259
vn 0.000000 0.939583 -0.342322
vn 0.000000 1.000000 0.000000
vn 0.000000 0.939583 -0.342322
vn 0.000000 0.000000 -1.000000
vn 0.000000 0.000000 -1.000000
vn 0.000000 0.000000 -1.000000
vn 0.000000 0.000000 -1.000000
vn 0.000000 0.000000 -1.000000
vn 0.000000 0.000000 -1.000000
vn 0.960000 0.000000 -0.279999
vn 0.960000 0.000000 -0.279999
vn 1.000000 0.000000 0.000000
vn 1.000000 0.000000 0.000000
vn -0.960000 0.000000 -0.279999
vn -0.960000 0.000000 -0.279999
vn -1.000000 0.000000 0.000000
vn -1.000000 0.000000 0.000000
vn 0.004310 0.002396 0.999988
vn 0.000000 0.008452 0.999964
vn 0.000000 0.008452 0.999964
vn 0.003534 0.003486 0.999988
vn 0.000000 -0.008452 0.999964
vn 0.004310 -0.002396 0.999988
vn 0.003534 -0.003486 0.999988
vn 0.000000 -0.008452 0.999964
vn -0.004310 0.002396 0.999988
vn -0.003534 0.003486 0.999988
vn -0.004310 -0.002396 0.999988
vn -0.003534 -0.003486 0.999988
vn 0.013847 0.452810 -0.891499
vn 0.004729 0.322090 -0.946697
vn 0.004606 0.320291 -0.947308
vn 0.013847 0.452810 -0.891499
vn 0.004729 -0.322090 -0.946697
vn 0.013847 -0.452810 -0.891499
vn 0.013847 -0.452810 -0.891499
vn 0.004606 -0.320291 -0.947308
vn 1.000000 0.000000 0.000000
vn 1.000000 0.000000 0.000000
vn 1.000000 0.000000 0.000000
vn 1.000000 0.000000 0.000000
vn 0.000000 0.252299 -0.967649
vn 0.000000 0.252299 -0.967649
vn -0.147808 0.000000 -0.989016
vn -0.147808 0.000000 -0.989016
vn -0.147808 0.000000 -0.989016
vn -0.147808 0.000000 -0.989016
vn 0.000000 -0.252299 -0.967649
vn 0.000000 -0.252299 -0.967649
vn 0.000000 0.000000 -0.000000
vn 0.000000 0.229634 0.973277
vn 0.000000 0.000001 -1.000000
vn 0.000000 0.000002 -1.000000
vn 0.000000 0.000000 1.000000
vn 0.000000 0.000000 1.000000
vn 0.000000 -1.000000 0.000000
vn 0.000000 -1.000000 0.000000
vn 0.000000 -1.000000 0.000000
vn 0.000000 -1.000000 0.000000
vn 0.000000 0.000000 0.000000
vn 0.000000 0.000004 -1.000000
vn 0.000000 -1.000000 0.000000
vn 0.000000 -1.000000 0.000000
vn 0.000000 -1.000000 0.000000
vn 0.000000 -1.000000 0.000000
vn 0.000000 0.000000 -0.000000
vn 0.000000 0.000000 -1.000000
vn 0.000000 0.000000 -0.000000
vn 0.000000 0.000000 -1.000000
vn 0.000000 0.000000 -1.000000
vn 0.000000 0.000000 -1.000000
vn 0.000000 0.000000 1.000000
vn 0.000000 0.000000 1.000000
vn -1.000000 0.000000 0.000000
vn -1.000000 0.000000 0.000000
vn -1.000000 0.000000 0.000000
vn -1.000000 0.000000 0.000000
vn 0.000000 0.000000 -1.000000
vn 1.000000 0.000000 0.000000
vn 1.000000 0.000000 0.000000
vn 1.000000 0.000000 0.000000
vn 1.000000 0.000000 0.000000
vn 0.000000 0.000000 1.000000
vn 0.000000 0.000000 1.000000
vn -0.000000 1.000000 0.000000
vn -0.000000 1.000000 0.000000
vn -0.000000 1.000000 0.000000
vn -0.000000 1.000000 0.000000
vn -0.000000 1.000000 -0.000000
vn -0.000000 1.000000 0.000000
vn -0.000000 1.000000 0.000000
vn -0.000000 1.000000 -0.000000
vn -0.000000 1.000000 0.000000
vn -0.000000 1.000000 0.000000
vn -0.000000 1.000000 -0.000000
vn -0.000000 1.000000 -0.000000
vn 0.000000 0.000000 -1.000000
vn 0.000000 0.000000 -1.000000
vn 0.000000 0.000000 -1.000000
vn 0.000000 0.000000 -1.000000
vn 0.000000 0.000000 1.000000
vn 0.000000 0.000000 1.000000
vn 0.000000 0.000000 1.000000
vn 0.000000 0.000000 1.000000
vn -1.000000 0.000000 0.000000
vn -1.000000 0.000000 0.000000
vn -1.000000 0.000000 0.000000
vn -1.000000 0.000000 0.000000
vn 0.000000 0.000000 -1.000000
vn 0.000000 0.000000 -1.000000
vn 1.000000 0.000000 0.000000
vn 1.000000 0.000000 0.000000
vn 1.000000 0.000000 0.000000
vn 1.000000 0.000000 0.000000
vn 0.000000 0.000000 1.000000
vn 0.000000 0.000000 1.000000
vn 0.000000 0.883910 -0.467658
vn 0.000000 0.883910 -0.467658
vn 0.000000 -0.883910 -0.467658
vn 0.000000 -0.883910 -0.467658
vn 0.000000 -0.883910 -0.467658
vn 0.000000 -0.883910 -0.467658
vn -0.913417 0.000000 -0.407026
vn -0.913417 0.000000 -0.407026
vn 0.000000 0.883910 -0.467658
vn 0.913417 0.000000 -0.407026
vn 0.913417 0.000000 -0.407026
vn 0.000000 -0.883910 -0.467658
vn 0.000000 -0.883910 -0.467658
s 1
g pCube1
usemtl phong1SG
f 43/50/1 44/51/2 45/52/3 46/53/4
f 44/51/2 47/54/5 48/55/6 45/52/3
s 2
usemtl blinn1SG
f 19/26/7 20/27/8 21/28/9 22/29/10
f 20/27/8 23/30/11 24/31/12 21/28/9
s 3
usemtl phong1SG
f 7/7/13 8/8/14 11/11/15 10/10/16
f 8/8/14 9/9/17 12/12/18 11/11/15
s 4
f 49/56/19 50/57/20 51/58/21 52/59/22
f 50/57/20 53/60/23 54/61/24 51/58/21
s 5
f 3/3/25 12/16/26 9/17/27 6/6/28
s 6
f 10/18/29 1/1/30 4/4/31 7/19/32
s 7
f 4/4/33 5/5/34 14/21/35 13/20/36
f 8/8/37 7/7/38 16/23/39 15/22/40
f 7/7/38 4/4/33 13/20/36 16/23/39
f 5/5/34 6/6/41 17/24/42 14/21/35
f 6/6/41 9/9/43 18/25/44 17/24/42
f 9/9/43 8/8/37 15/22/40 18/25/44
s 8
f 13/20/45 14/21/46 20/27/47 19/26/48
s 9
f 15/22/49 16/23/50 22/29/51 21/28/52
s off
f 16/23/53 13/20/54 19/26/55 22/29/56
s 8
f 14/21/46 17/24/57 23/30/58 20/27/47
s off
f 17/24/59 18/25/60 24/31/61 23/30/62
s 9
f 18/25/63 15/22/49 21/28/52 24/31/64
s 10
f 1/1/65 2/2/66 26/33/67 25/32/68
s 7
f 5/5/34 4/4/33 28/35/69 27/34/70
s off
f 4/4/71 1/1/72 25/32/73 28/35/74
s 10
f 2/2/66 3/3/75 29/36/76 26/33/67
s off
f 3/3/77 6/6/78 30/37/79 29/36/80
f 6/6/81 5/5/82 27/34/83 30/37/84
s 10
f 25/32/68 26/33/67 32/39/85 31/38/86
s 7
f 27/34/70 28/35/69 34/41/87 33/40/88
s off
f 28/35/89 25/32/90 31/38/91 34/41/92
s 10
f 26/33/67 29/36/76 35/42/93 32/39/85
s off
f 29/36/94 30/37/95 36/43/96 35/42/97
s 7
f 30/37/98 27/34/70 33/40/88 36/43/99
s 11
f 31/38/100 32/39/101 38/45/102 37/44/103
f 33/40/104 34/41/105 40/47/106 39/46/107
f 34/41/105 31/38/100 37/44/103 40/47/106
f 32/39/101 35/42/108 41/48/109 38/45/102
f 35/42/108 36/43/110 42/49/111 41/48/109
f 36/43/110 33/40/104 39/46/107 42/49/111
s 12
f 37/44/112 38/45/113 44/51/114 43/50/115
s 13
f 39/46/116 40/47/117 46/53/118 45/52/119
s off
f 40/47/120 37/44/121 43/50/122 46/53/123
s 12
f 38/45/113 41/48/124 47/54/125 44/51/114
s off
f 41/48/126 42/49/127 48/55/128 47/54/129
s 13
f 42/49/130 39/46/116 45/52/119 48/55/131
s 3
f 10/10/16 11/11/15 50/57/132 49/56/133
s 14
f 2/14/134 1/13/135 52/59/136 51/58/137
s 6
f 1/13/30 10/10/29 49/56/138 52/59/139
s 3
f 11/11/15 12/12/18 53/60/140 50/57/132
s 5
f 12/12/26 3/15/25 54/61/141 53/60/142
s 14
f 3/15/143 2/14/134 51/58/137 54/61/144
